<svg width="100" height="100" viewBox="0 0 100px 100px" fill="none" xmlns="http://www.w3.org/2000/svg">
<rect width="100" height="100" fill="#403B3B"/>
<path d="M0 49.6239V99.2461H50H100V49.6239V0.00175961H50H0V49.6239ZM46.272 6.87833C46.6121 7.01687 46.7758 7.44508 46.8766 8.50302C46.927 9.05718 47.0277 9.93879 47.1033 10.4552C47.1662 10.9715 47.2796 11.828 47.3552 12.3443C47.4181 12.8607 47.5315 13.7423 47.6071 14.2965C47.6826 14.8506 47.796 15.7574 47.8589 16.3116C47.9219 16.8657 48.0101 17.4955 48.0479 17.697C48.1738 18.2763 47.8086 18.6542 47.1033 18.7045C45.6675 18.8053 44.6977 18.9312 44.6348 19.032C44.597 19.095 44.3955 19.1453 44.1814 19.1453C43.9547 19.1453 43.6146 19.1957 43.4005 19.2587C43.1864 19.3217 42.7834 19.435 42.5063 19.5106C40.9194 19.901 40.7431 19.9766 40.7053 20.3418C40.6801 20.5307 40.7179 20.7448 40.7935 20.8204C40.869 20.896 40.932 21.1101 40.932 21.299C40.932 21.4879 40.995 21.6894 41.0579 21.7272C41.1335 21.765 41.1839 21.9413 41.1839 22.105C41.1839 22.2688 41.2469 22.5458 41.3224 22.7222C41.5491 23.2133 41.3728 23.6164 40.8438 23.8683C40.2267 24.1453 39.7985 24.3594 39.4584 24.5358C39.2947 24.6239 39.0428 24.7499 38.8917 24.838C38.5264 25.0269 36.3728 26.3368 36.2091 26.4753C36.1461 26.5257 35.8186 26.765 35.5038 26.9917C34.7607 27.5081 33.8917 28.1504 33.5516 28.44C33.4005 28.5534 33.0479 28.8557 32.7582 29.095C32.1411 29.5987 30.6927 31.0471 30.2267 31.6264C30.0504 31.8406 29.7733 32.1554 29.597 32.3443C29.4207 32.5207 29.1184 32.9237 28.9169 33.2385C28.5013 33.8934 28.539 33.9942 29.3577 34.6113C30.5038 35.4678 30.6171 35.5559 30.7557 35.8078C30.8564 36.0093 30.8186 36.1856 30.5919 36.6642C30.4282 37.0043 30.2519 37.2814 30.2015 37.2814C30.1385 37.2814 30.1008 37.3821 30.1008 37.4955C30.1008 37.6214 29.9874 37.8607 29.8489 38.037C29.7103 38.2133 29.597 38.4275 29.597 38.5156C29.597 38.6038 29.5466 38.7675 29.471 38.8934C29.1688 39.4476 28.8413 40.2411 28.8413 40.4426C28.8413 40.5685 28.7909 40.707 28.7154 40.7448C28.6524 40.7826 28.5894 40.9338 28.5894 41.0723C28.5894 41.1982 28.539 41.4249 28.4635 41.5635C28.4005 41.702 28.2872 41.9287 28.2116 42.0673C28.1486 42.2058 28.0856 42.4325 28.0856 42.571C28.0856 42.7096 28.0353 42.9237 27.9723 43.0496C27.8086 43.3645 27.5819 44.4098 27.5819 44.8128C27.5819 45.0018 27.5315 45.2159 27.4685 45.2914C27.4055 45.3544 27.3174 45.7196 27.2796 46.0975C27.1537 47.2058 27.0529 51.6264 27.1285 52.0924L27.2166 52.5081L28.4635 52.4325C29.8237 52.3443 30.1008 52.4451 30.1008 52.9741C30.1008 53.1252 30.1637 53.3015 30.2267 53.3393C30.3023 53.3771 30.3526 53.6038 30.3526 53.8431C30.3526 54.0824 30.403 54.3091 30.4786 54.3468C30.5542 54.3846 30.6045 54.5484 30.6045 54.6869C30.6045 54.9514 30.7683 55.5559 31.0202 56.173C31.5491 57.5081 31.5617 57.5458 31.9899 58.44C32.5819 59.6869 33.199 60.8204 33.4257 61.0723C33.539 61.1856 33.6272 61.3242 33.6272 61.3746C33.6272 61.7524 35.8942 64.3594 37.0655 65.3292C38.3879 66.4249 38.9924 66.8783 39.1436 66.8783C39.2065 66.8783 39.3325 66.9665 39.4207 67.0673C39.5718 67.2562 41.8136 68.3897 42.0277 68.3897C42.0907 68.3897 42.3804 68.503 42.67 68.6416C42.9471 68.7801 43.262 68.8934 43.3627 68.8934C43.4509 68.8934 43.5768 68.9438 43.6524 69.0068C43.7154 69.0698 44.005 69.1579 44.3073 69.2083L44.8363 69.2965V68.3645C44.8363 67.5332 44.8741 67.3947 45.1511 67.1302C45.4408 66.8531 45.4912 66.8531 46.1713 66.9917C46.5743 67.0673 47.4433 67.1302 48.1108 67.1302C48.8161 67.1302 49.3829 67.1932 49.4584 67.2688C49.5466 67.3569 49.8867 67.3821 50.3904 67.3317C50.8312 67.294 51.7884 67.1932 52.5189 67.1302C54.3199 66.9665 54.9244 66.8783 55.2267 66.7524C55.3652 66.702 55.806 66.5761 56.2091 66.4879C56.6121 66.3997 56.9647 66.2864 57.0025 66.2234C57.0403 66.173 57.1788 66.1227 57.3174 66.1227C57.4433 66.1227 57.6574 66.0597 57.7834 65.9967C57.8967 65.9212 58.2494 65.7574 58.5642 65.6189C60.063 64.964 61.9018 63.6542 63.1864 62.3191L63.728 61.765L63.0982 61.1479C62.2418 60.304 62.2544 60.0521 63.2242 58.7549C63.6272 58.2008 64.0428 57.6088 64.131 57.4325C64.2191 57.2562 64.3199 57.0924 64.3703 57.0547C64.4836 56.9413 65.4912 54.8254 65.4912 54.6743C65.4912 54.5987 65.5416 54.435 65.6045 54.3091C65.6675 54.1957 65.7809 53.8431 65.869 53.5282C65.9446 53.2133 66.0705 52.7851 66.1335 52.571C66.398 51.702 66.3476 51.639 65.3275 51.639C64.4836 51.639 64.3829 51.6139 64.068 51.2864C63.7406 50.9463 63.602 50.3796 63.8539 50.3796C63.9295 50.3796 63.9798 49.6995 63.9798 48.5786C63.9798 46.4627 63.8791 46.0975 63.262 46.0975C63.0479 46.0975 62.8212 46.1479 62.7834 46.2234C62.7456 46.2864 62.4811 46.3494 62.2166 46.3494C61.8262 46.3494 61.6751 46.2738 61.4736 45.9841C61.3224 45.7826 61.2091 45.5811 61.2091 45.5307C61.2091 45.4929 61.0453 45.2159 60.8564 44.9262C60.6675 44.6365 60.4282 44.2461 60.3401 44.0446C60.1008 43.5912 59.937 43.6164 59.4836 44.1453C58.9043 44.8254 58.4005 44.7625 57.4937 43.9312L56.7758 43.2763L56.2091 43.8683C55.6549 44.4476 55.0882 44.7247 54.9244 44.5106C54.8867 44.4476 54.7229 44.3217 54.5718 44.2461C54.2569 44.0698 54.2317 44.0824 53.6146 45.2159C53.3501 45.6945 53.2368 45.7826 52.8589 45.8204C52.5441 45.8456 52.3929 45.9463 52.2796 46.173C52.0655 46.6516 52.1033 46.8028 52.6322 47.4955C53.3627 48.4652 53.4635 49.8632 52.8589 50.8834C52.3048 51.8154 51.6373 52.1428 50.3275 52.1428C49.5466 52.1428 49.3577 52.0924 48.8791 51.765C48.5894 51.5635 48.1738 51.1353 47.9723 50.8204C47.6574 50.3166 47.6071 50.1277 47.6071 49.3343C47.6071 48.6164 47.67 48.3267 47.8967 47.9741C48.2242 47.4325 48.8791 46.8531 49.1688 46.8531C49.2821 46.8531 49.3703 46.8028 49.3703 46.7398C49.3703 46.6642 49.6348 46.6013 49.9496 46.5761C50.5038 46.5383 50.5416 46.5131 50.7053 46.0345C50.9572 45.2788 50.9194 45.0395 50.4912 44.7247C50.063 44.4098 50.0756 44.6239 50.3778 42.0673C50.4408 41.4753 50.529 40.5937 50.5668 40.1151C50.6045 39.6239 50.6927 39.032 50.7557 38.7927C50.8186 38.5534 50.9068 37.9237 50.9446 37.4073C50.9824 36.8909 51.0705 35.9841 51.1335 35.3922C51.1965 34.8002 51.2846 33.8683 51.3224 33.3141C51.3728 32.7599 51.4484 32.1932 51.5113 32.0547C51.5743 31.9161 51.6625 31.3242 51.7003 30.7322C51.7884 29.7247 51.8388 29.1705 52.1411 26.639C52.204 26.0849 52.3174 25.1151 52.3804 24.498C52.4559 23.8683 52.5693 22.8859 52.6448 22.294C52.7834 21.1101 52.9723 19.435 53.1486 17.697C53.2116 17.0673 53.3249 16.1101 53.4005 15.5559C53.4761 15.0018 53.5894 14.032 53.6524 13.4149C53.7154 12.7851 53.8287 11.8028 53.8917 11.2108C53.9673 10.6189 54.0554 9.64911 54.1058 9.03199C54.1562 8.42745 54.2443 7.89849 54.2947 7.8607C54.3577 7.82292 54.4081 7.68438 54.4081 7.55843C54.4081 7.28136 55 6.92871 55.2897 7.02947C55.6675 7.15541 55.9194 7.48287 55.9194 7.8733C55.9194 8.0874 55.869 8.3141 55.806 8.37707C55.7431 8.45264 55.6549 8.95642 55.6171 9.51058C55.5542 10.4803 55.4408 11.6139 55.1637 13.8557C55.1008 14.4476 54.9874 15.43 54.9118 16.0597C54.8489 16.6768 54.7355 17.6466 54.6725 18.2008C54.6096 18.7549 54.5214 19.6617 54.471 20.2159C54.4333 20.77 54.3451 21.3368 54.2821 21.4753C54.2191 21.6139 54.1436 22.2058 54.0932 22.7977C54.0554 23.3897 53.9547 24.3217 53.8917 24.8758C53.8161 25.43 53.7406 26.362 53.7028 26.9539C53.6776 27.5458 53.5894 28.1378 53.5264 28.2763C53.4635 28.4149 53.3879 28.9564 53.3375 29.4728C53.2746 30.3544 53.2116 31.0093 52.9093 33.629C52.8338 34.2209 52.7204 35.2411 52.6448 35.896C52.5693 36.5509 52.4559 37.5207 52.4055 38.037C52.1537 40.1655 52.1033 41.1856 52.2544 41.1856C52.33 41.1856 52.3929 41.0723 52.3929 40.9463C52.3929 40.8078 52.4559 40.6567 52.5189 40.6189C52.5945 40.5811 52.6448 40.4048 52.6448 40.2411C52.6448 40.0773 52.7582 39.6869 52.8967 39.3594C53.0353 39.032 53.1486 38.6667 53.1486 38.5282C53.1486 38.3897 53.2116 38.1756 53.2746 38.037C53.3501 37.8985 53.4635 37.6718 53.5264 37.5332C53.602 37.3947 53.6524 37.1428 53.6524 36.9791C53.6524 36.8028 53.7154 36.6264 53.7783 36.5887C53.8539 36.5509 53.9043 36.3746 53.9043 36.2108C53.9043 36.0471 53.9673 35.8708 54.0302 35.833C54.1058 35.7952 54.1562 35.6441 54.1562 35.5055C54.1562 35.3796 54.2066 35.1655 54.2695 35.0395C54.3325 34.9262 54.5088 34.3972 54.66 33.8809C54.8111 33.3645 54.9874 32.8355 55.0504 32.7222C55.1134 32.5962 55.1637 32.3821 55.1637 32.2562C55.1637 32.1176 55.2267 31.9665 55.2897 31.9287C55.3652 31.8909 55.4156 31.7272 55.4156 31.5635C55.4156 31.4123 55.529 31.0471 55.6675 30.7574C55.806 30.4803 55.9194 30.1277 55.9194 29.9766C55.9194 29.838 55.9824 29.6113 56.0453 29.4728C56.1209 29.3343 56.2343 29.1076 56.2972 28.969C56.3728 28.8305 56.4232 28.5786 56.4232 28.4149C56.4232 28.2385 56.4861 28.0622 56.5491 28.0244C56.6247 27.9866 56.6751 27.8103 56.6751 27.6466C56.6751 27.4829 56.738 27.3065 56.801 27.2688C56.8766 27.231 56.927 27.0547 56.927 26.8909C56.927 26.7272 56.9899 26.5509 57.0529 26.5131C57.1285 26.4753 57.1788 26.299 57.1788 26.1227C57.1788 25.9589 57.2418 25.707 57.3048 25.5685C57.3804 25.43 57.4937 25.2033 57.5567 25.0647C57.6322 24.9262 57.6826 24.6869 57.6826 24.5232C57.6826 24.3594 57.7204 24.1831 57.7708 24.1327C57.9093 24.0068 58.1864 23.1378 58.1864 22.8481C58.1864 22.7096 58.2368 22.5458 58.2872 22.4703C58.3501 22.4073 58.4635 22.105 58.5516 21.7902C58.6398 21.4753 58.7657 21.1101 58.8161 20.9715C58.8791 20.833 58.9924 20.4929 59.0806 20.2159C59.1562 19.9388 59.2695 19.6113 59.3325 19.498C59.3955 19.372 59.4458 19.1579 59.4458 19.032C59.4458 18.8934 59.5088 18.7423 59.5718 18.7045C59.6474 18.6667 59.6977 18.4904 59.6977 18.3267C59.6977 18.163 59.7607 17.9866 59.8237 17.9489C59.8992 17.9111 59.9496 17.7599 59.9496 17.6214C59.9496 17.2814 60.2393 16.3746 60.3526 16.3746C60.4156 16.3746 60.4534 16.2108 60.4534 16.0219C60.4534 15.8204 60.5668 15.43 60.7053 15.1403C60.8438 14.8632 60.9572 14.4854 60.9572 14.3091C60.9572 14.1327 61.0202 13.9564 61.0831 13.9186C61.1587 13.8809 61.2091 13.7045 61.2091 13.5408C61.2091 13.3771 61.272 13.2008 61.335 13.163C61.4106 13.1252 61.461 12.9741 61.461 12.8355C61.461 12.7096 61.5113 12.4955 61.5869 12.3695C61.6499 12.2562 61.8262 11.7272 61.9773 11.2108C62.4811 9.42241 62.796 8.80529 63.2746 8.67934C63.5642 8.60377 63.6776 8.64156 63.9295 8.90604C64.2443 9.24609 64.3073 9.56095 64.131 9.77506C64.068 9.83803 63.9547 10.1403 63.8665 10.4552C63.6776 11.1227 63.4887 11.6768 63.3501 12.0295C63.2997 12.168 63.1864 12.5332 63.0982 12.8481C63.0227 13.163 62.8967 13.5156 62.8338 13.629C62.7708 13.7549 62.7204 13.969 62.7204 14.095C62.7204 14.2335 62.67 14.3846 62.5945 14.4224C62.5189 14.4602 62.4685 14.6365 62.4685 14.8128C62.4685 14.9766 62.4181 15.2159 62.3552 15.3418C62.1662 15.707 62.0025 16.1605 61.8262 16.7524C61.738 17.0673 61.6247 17.3695 61.5617 17.4325C61.5113 17.5081 61.461 17.6844 61.461 17.8481C61.461 18.0118 61.4106 18.2511 61.335 18.3897C61.272 18.5282 61.1587 18.7549 61.0831 18.8934C61.0202 19.032 60.9572 19.2461 60.9572 19.3594C60.9572 19.6239 60.6675 20.4803 60.5416 20.6063C60.4912 20.6567 60.4534 20.8582 60.4534 21.0471C60.4534 21.236 60.403 21.4375 60.3275 21.4753C60.2645 21.5131 60.2015 21.6894 60.2015 21.8531C60.2015 22.0169 60.1511 22.1932 60.0756 22.231C60.0126 22.2688 59.9496 22.4451 59.9496 22.6088C59.9496 22.7725 59.8992 22.9489 59.8237 22.9866C59.7607 23.0244 59.6977 23.2008 59.6977 23.3771C59.6977 23.5408 59.6474 23.7801 59.5844 23.906C59.3703 24.3217 59.2066 24.7499 59.1562 25.0647C59.1058 25.3418 58.9043 25.9463 58.5642 26.8909C58.5139 27.0295 58.2872 27.7348 58.0605 28.4652C57.8338 29.1957 57.6071 29.8884 57.5441 30.0018C57.4811 30.1277 57.4307 30.3418 57.4307 30.4678C57.4307 30.6063 57.3804 30.7574 57.3048 30.7952C57.2418 30.833 57.1788 31.0093 57.1788 31.173C57.1788 31.3368 57.1285 31.5131 57.0529 31.5509C56.9899 31.5887 56.927 31.765 56.927 31.9413C56.927 32.1176 56.8136 32.4955 56.6751 32.7725C56.5365 33.0622 56.4232 33.4023 56.4232 33.5282C56.4232 33.6542 56.3728 33.8683 56.2972 34.0068C56.2343 34.1453 56.1209 34.372 56.0453 34.5106C55.9698 34.6491 55.9194 34.8506 55.9194 34.9766C55.9194 35.1781 55.7557 35.77 55.5416 36.3368C55.3904 36.7146 55.2141 37.2814 55.0252 37.9111C54.937 38.2259 54.8237 38.5282 54.7607 38.5912C54.7103 38.6667 54.66 38.8431 54.66 38.9942C54.66 39.1579 54.6096 39.3217 54.534 39.3594C54.471 39.3972 54.4081 39.561 54.4081 39.7247C54.4081 39.8758 54.3451 40.0647 54.2569 40.1529C54.1436 40.2662 54.1436 40.3418 54.2569 40.4552C54.3703 40.5685 54.4081 40.5559 54.4081 40.3544C54.4081 40.2159 54.4584 40.0521 54.5214 39.9766C54.5844 39.9136 54.8867 39.4098 55.1763 38.8557C56.1713 36.9791 56.3728 36.5887 56.6499 36.1101C56.801 35.8456 56.927 35.5559 56.927 35.4678C56.927 35.367 56.9647 35.2662 57.0277 35.2411C57.0781 35.2159 57.3048 34.838 57.5441 34.3846C57.7834 33.9312 58.073 33.4149 58.2116 33.2259C58.3375 33.0496 58.4383 32.8355 58.4383 32.7474C58.4383 32.6592 58.539 32.4451 58.665 32.2688C58.7909 32.0798 58.9798 31.7272 59.068 31.4879C59.1688 31.2486 59.3451 30.9338 59.471 30.8078C59.597 30.6693 59.6977 30.4803 59.6977 30.3922C59.6977 30.304 59.8237 30.0269 59.9748 29.7625C60.1134 29.498 60.3652 29.0572 60.5038 28.7801C60.6549 28.503 60.7935 28.2511 60.8312 28.2133C60.869 28.1756 60.9698 27.9741 61.0705 27.7725C61.1587 27.5584 61.2972 27.2814 61.3728 27.1428C61.4484 27.0043 61.7128 26.4753 61.9773 25.9841C62.2418 25.4803 62.5693 24.901 62.7078 24.6995C62.8589 24.498 62.9723 24.2587 62.9723 24.1579C62.9723 24.0572 63.0227 23.9312 63.0856 23.8557C63.2746 23.6793 64.2317 21.7776 64.2317 21.5887C64.2317 21.5005 64.2821 21.4123 64.3451 21.3872C64.471 21.3494 64.6222 21.0471 66.4232 17.571C66.9647 16.5257 67.4433 15.6189 67.5063 15.5559C67.5567 15.4803 67.9597 14.7499 68.3879 13.9186C69.2947 12.1554 69.4458 11.9665 69.8992 11.9665C70.7431 11.9665 70.7431 12.7599 69.9244 14.372C69.5844 15.0269 69.1184 15.896 68.9043 16.3116C68.6776 16.7272 68.1486 17.7222 67.733 18.5156C67.3174 19.3091 66.927 20.0144 66.864 20.0899C66.801 20.1529 66.7506 20.2788 66.7506 20.3796C66.7506 20.4803 66.6373 20.7196 66.4861 20.9337C66.335 21.1353 65.7935 22.1302 65.2771 23.1504C64.7607 24.1705 64.2821 25.0521 64.2317 25.1277C64.1688 25.1907 63.6776 26.1353 63.136 27.2058C62.5819 28.2763 61.9899 29.3972 61.801 29.6869C61.6121 29.9892 61.461 30.304 61.461 30.3922C61.461 30.4803 61.4106 30.6063 61.3476 30.6819C61.2469 30.7826 60.9446 31.3242 60.3652 32.4325C60.1763 32.7977 59.8363 33.4526 59.2947 34.4476C59.0428 34.9262 58.5516 35.8708 58.2242 36.5257C57.8967 37.1806 57.5945 37.7474 57.5567 37.7851C57.4307 37.9111 57.0403 38.6164 56.8514 39.0698C56.738 39.3343 56.5995 39.5484 56.5365 39.5484C56.4736 39.5484 56.4232 39.6617 56.4232 39.7877C56.4232 39.9262 56.3728 40.0773 56.2972 40.1151C56.0327 40.2788 56.1839 40.6315 56.7632 41.2108C57.0907 41.5383 57.4055 41.8154 57.4559 41.8154C57.5063 41.8154 57.7582 42.0169 58.0227 42.2562C58.5768 42.7599 58.6902 42.7851 59.005 42.4451C59.2191 42.2058 59.2066 42.168 58.199 41.1605C57.0277 39.9766 56.9395 39.6995 57.5693 39.032C57.7834 38.8053 58.0227 38.4778 58.1234 38.2889C58.2116 38.1126 58.4383 37.8481 58.6146 37.7222C58.7909 37.5836 58.9421 37.4199 58.9421 37.3695C58.9421 37.2184 59.6851 36.173 60.0756 35.7826C60.2519 35.6063 60.4786 35.304 60.5668 35.1025C60.6675 34.9136 60.7935 34.7625 60.8438 34.7625C60.9068 34.7625 61.1335 34.498 61.3476 34.1579C61.5743 33.8305 61.7884 33.5408 61.8262 33.503C61.8766 33.4652 62.0529 33.2385 62.2418 32.9741C62.4307 32.7222 62.67 32.4451 62.7582 32.3443C62.8463 32.2562 63.0605 31.9791 63.2242 31.7398C63.4005 31.5005 63.665 31.173 63.8161 31.0093C63.9798 30.8456 64.1058 30.6693 64.1058 30.6063C64.1058 30.5433 64.1814 30.4174 64.2695 30.3292C64.3451 30.2411 64.5718 29.964 64.7481 29.7247C64.937 29.4854 65.2015 29.1453 65.3526 28.9816C65.4912 28.8179 65.6171 28.629 65.6171 28.5786C65.6171 28.5282 65.6927 28.4023 65.7809 28.3141C66.2343 27.8355 67.5063 26.1982 67.5063 26.0849C67.5063 26.0093 67.5567 25.9463 67.6322 25.9463C67.6952 25.9463 67.9219 25.6945 68.136 25.3796C68.3501 25.0647 68.665 24.6617 68.8287 24.4854C69.005 24.2965 69.1436 24.1076 69.1436 24.0572C69.1436 23.9942 69.3199 23.7801 69.5214 23.5534C69.7355 23.3267 69.8992 23.1126 69.8992 23.0622C69.8992 23.0118 70.0882 22.7725 70.3275 22.5207C70.5542 22.2814 70.7683 22.0169 70.7935 21.9539C70.8438 21.8406 71.0453 21.5635 71.927 20.4929C72.1033 20.2662 72.3804 19.8884 72.5441 19.6491C72.7078 19.4098 72.8841 19.1831 72.9219 19.1453C73.0982 18.9942 74.1814 17.6088 74.1814 17.5207C74.1814 17.4829 74.3073 17.3065 74.471 17.1302C74.6222 16.9539 74.8867 16.6264 75.0504 16.3997C75.2015 16.173 75.5038 15.9086 75.7179 15.7952C76.0831 15.6063 76.1083 15.6063 76.461 15.9463C76.8892 16.362 76.927 16.7524 76.5617 17.0798C76.4106 17.2058 76.0579 17.6592 75.7809 18.0748C75.4912 18.4904 75.1889 18.906 75.1008 18.9942C75.0126 19.095 74.7859 19.372 74.597 19.6239C74.4081 19.8884 74.0932 20.2914 73.8917 20.5307C73.4383 21.0975 73.4383 21.1101 72.7582 22.0043C72.4433 22.4199 72.0907 22.8229 71.9899 22.9237C71.8766 23.0118 71.7884 23.1378 71.7884 23.2133C71.7884 23.2763 71.5995 23.5534 71.3854 23.8053C71.1587 24.0698 70.7557 24.561 70.5038 24.901C70.2393 25.2285 69.8615 25.707 69.6474 25.9463C69.4458 26.1856 69.2695 26.4501 69.2695 26.5383C69.2695 26.6139 69.2191 26.702 69.1688 26.7272C69.1184 26.7398 68.8791 27.0169 68.6398 27.3317C68.4005 27.6466 68.1108 27.9866 68.0101 28.0874C67.8967 28.1882 67.67 28.4778 67.5063 28.7171C67.33 28.9564 67.1285 29.2461 67.0403 29.3468C66.9647 29.4476 66.6247 29.901 66.2846 30.3544C65.9572 30.8078 65.6549 31.1982 65.6171 31.236C65.5668 31.2738 65.2897 31.6264 64.9748 32.0295C64.6725 32.4325 64.2821 32.9489 64.1058 33.1756C63.9295 33.4023 63.5516 33.906 63.2494 34.2965C62.9597 34.6995 62.6574 35.0144 62.5945 35.0144C62.5189 35.0144 62.4685 35.0899 62.4685 35.1781C62.4685 35.2662 62.204 35.6567 61.8892 36.0345C61.0076 37.0798 60.9572 37.1554 60.9572 37.2688C60.9572 37.3191 60.8438 37.4703 60.6927 37.6088C60.5416 37.7348 60.2267 38.1504 59.9748 38.5156C59.7355 38.8934 59.4584 39.2209 59.3703 39.2587C59.0176 39.3972 59.0932 39.6995 59.6096 40.2788C60.1763 40.8834 61.5743 42.9489 62.1033 43.9564C62.4181 44.5358 62.8589 44.7499 63.136 44.4728C63.2872 44.3217 63.1486 44.0068 62.0025 41.8154C61.801 41.4375 61.4358 40.833 61.1713 40.4929C60.9194 40.1403 60.7053 39.7751 60.7053 39.6743C60.7053 39.3972 61.0327 39.0446 62.0277 38.2133C62.5189 37.8103 62.9597 37.4073 63.0101 37.3191C63.0605 37.231 63.3753 36.9539 63.7028 36.7146C64.0302 36.4627 64.6096 35.9589 64.9874 35.5937C65.3652 35.2285 66.0831 34.5987 66.5617 34.1831C67.0529 33.7801 67.6322 33.2385 67.8715 32.9741C68.0982 32.7096 68.3627 32.4955 68.4383 32.4955C68.5139 32.4955 68.9169 32.1554 69.3325 31.7398C69.7481 31.3242 70.4282 30.707 70.8438 30.367C71.272 30.0395 71.864 29.5106 72.1662 29.1957C72.4811 28.8809 72.8338 28.566 72.9597 28.503C73.0856 28.44 73.539 28.0496 73.9673 27.6214C74.3955 27.2058 75.1134 26.5509 75.5668 26.173C76.0202 25.7952 76.6247 25.2662 76.9144 24.9892C77.204 24.7247 77.6071 24.3594 77.8086 24.1831C78.4131 23.6667 79.9622 22.2814 80.7305 21.5635C81.7254 20.6441 82.4307 20.6693 82.5567 21.6264C82.6071 22.0547 82.5189 22.1806 81.4861 23.037C81.0327 23.4149 80.466 23.9186 80.2267 24.1705C79.9874 24.4224 79.471 24.8758 79.0932 25.1907C78.7154 25.4929 78.2494 25.896 78.073 26.0849C77.8841 26.2612 77.3804 26.7146 76.9521 27.0798C76.5113 27.4325 75.806 28.0622 75.3904 28.4778C74.9622 28.8809 74.5844 29.2209 74.534 29.2209C74.4836 29.2209 74.1688 29.4854 73.8413 29.8128C73.5013 30.1529 72.8589 30.7196 72.4181 31.0975C71.9647 31.4753 71.2594 32.1176 70.8564 32.5207C70.4534 32.9237 70.063 33.2511 70 33.2511C69.937 33.2511 69.5592 33.5786 69.1562 33.969C68.7657 34.372 68.2494 34.8506 68.0101 35.0395C67.7708 35.2159 67.1159 35.7952 66.5617 36.3242C66.0076 36.8531 65.5164 37.2814 65.466 37.2814C65.4156 37.2814 65.1637 37.4955 64.8992 37.7599C64.6348 38.0118 64.0428 38.566 63.5768 38.969C63.0982 39.372 62.7204 39.7751 62.7204 39.8632C62.7204 39.9388 62.9471 40.367 63.2242 40.7952C63.5013 41.2234 63.728 41.6139 63.728 41.6642C63.728 41.7146 63.9043 42.0924 64.1058 42.4829C64.3199 42.8859 64.4836 43.3015 64.4836 43.4023C64.4836 43.503 64.5466 43.5786 64.6096 43.5786C64.6851 43.5786 64.7355 43.7171 64.7355 43.8809C64.7355 44.0572 64.7859 44.2209 64.8489 44.2587C64.9118 44.2965 65 44.5358 65.0378 44.7751C65.0756 45.0144 65.1511 45.4174 65.1889 45.6567C65.2267 45.896 65.3149 46.1353 65.3778 46.173C65.4408 46.2108 65.4912 47.0798 65.4912 48.1126C65.4912 49.8758 65.5038 49.9892 65.7431 50.0647C65.8816 50.1025 66.1209 50.1025 66.2594 50.0647C66.5113 49.9766 66.5239 49.9136 66.4484 49.0068C66.3098 47.3695 66.2217 46.7902 66.1083 46.6768C66.0453 46.6013 65.995 46.362 65.995 46.1479C65.995 45.9212 65.9446 45.6945 65.869 45.6567C65.806 45.6189 65.7431 45.4174 65.7431 45.2159C65.7431 45.0144 65.6927 44.8128 65.6171 44.7751C65.5542 44.7373 65.4912 44.561 65.4912 44.3972C65.4912 44.2335 65.4408 44.0572 65.3652 44.0194C65.3023 43.9816 65.2393 43.8053 65.2393 43.6416C65.2393 43.4778 65.1889 43.3015 65.1134 43.2637C65.0504 43.2259 64.9874 43.0244 64.9874 42.8229C64.9874 42.6214 64.937 42.4199 64.8615 42.3821C64.7985 42.3443 64.7355 42.1932 64.7355 42.0547C64.7355 41.9287 64.6851 41.8154 64.6096 41.8154C64.5466 41.8154 64.4836 41.702 64.4836 41.5635C64.4836 41.4249 64.4333 41.3116 64.3577 41.3116C64.2947 41.3116 64.2317 41.1479 64.2317 40.9589C64.2317 40.4678 64.7103 40.0521 66.2469 39.2587C66.6247 39.0572 67.0277 38.8305 67.1285 38.7423C67.2292 38.6667 67.4937 38.5156 67.6952 38.4149C67.9093 38.3141 68.4257 38.0118 68.8665 37.7599C69.2947 37.4955 69.6851 37.2814 69.7103 37.2814C69.7481 37.2814 70.1511 37.0547 70.6045 36.7776C71.0579 36.5005 71.4736 36.2738 71.5113 36.2738C71.5491 36.2738 71.6751 36.1982 71.7758 36.0975C71.8892 35.9967 72.4307 35.6819 72.9849 35.3922C73.539 35.1025 74.0806 34.7877 74.194 34.6869C74.2947 34.5861 74.4333 34.5106 74.4836 34.5106C74.534 34.5106 74.8111 34.3468 75.1008 34.1579C75.3904 33.969 75.806 33.7297 76.0076 33.629C76.2217 33.5282 76.6121 33.3015 76.8892 33.1252C77.1662 32.9489 77.5693 32.7222 77.7708 32.6214C77.9849 32.5207 78.3753 32.294 78.6524 32.1176C78.9295 31.9413 79.471 31.6264 79.8489 31.4249C80.2267 31.236 80.8564 30.8708 81.2343 30.6315C81.6121 30.3796 82.33 29.9766 82.8086 29.7247C83.2997 29.4728 84.1562 28.969 84.7229 28.6164C85.7935 27.9363 86.5365 27.7725 86.8766 28.1126C87.0403 28.2763 87.0781 28.8305 86.927 29.0446C86.8388 29.1957 85.5038 30.0144 84.8237 30.3544C84.6222 30.4552 84.131 30.7448 83.7532 30.9967C83.3627 31.2486 82.67 31.6642 82.204 31.9035C81.738 32.1428 81.2846 32.4073 81.1965 32.4703C81.1083 32.5458 80.7305 32.7599 80.3526 32.9615C79.9748 33.163 79.4333 33.4652 79.1562 33.6416C78.8791 33.8053 78.4887 34.032 78.2746 34.1327C78.073 34.2335 77.8715 34.3594 77.8338 34.3972C77.796 34.4476 77.5189 34.5987 77.204 34.7625C76.8892 34.9136 76.461 35.1655 76.2594 35.3292C76.0453 35.4803 75.6297 35.7196 75.3149 35.8708C75 36.0093 74.534 36.2738 74.2695 36.4501C74.005 36.6264 73.7406 36.7776 73.6776 36.7776C73.602 36.7776 73.5516 36.8154 73.5516 36.8657C73.5516 36.9287 73.4257 37.0295 73.262 37.105C72.7582 37.3569 71.2846 38.163 70.806 38.4526C70.5542 38.6038 70.1763 38.8179 69.9622 38.9186C69.7607 39.0194 69.3577 39.2587 69.0932 39.4476C68.8287 39.6491 68.5642 39.8002 68.5013 39.8002C68.4509 39.8002 67.9093 40.1025 67.2922 40.4803C66.3476 41.0597 66.1965 41.2108 66.2217 41.4627C66.2469 41.6264 66.3224 41.8028 66.3854 41.8657C66.4484 41.9413 66.4987 42.1428 66.4987 42.3317C66.4987 42.5207 66.5617 42.7222 66.6247 42.7599C66.7003 42.7977 66.7506 42.9363 66.7506 43.0496C66.7506 43.3015 67.2292 44.9388 67.3929 45.2411C67.4559 45.367 67.5063 45.6693 67.5063 45.9086C67.5063 46.1479 67.5567 46.3494 67.6196 46.3494C67.9093 46.3494 68.0227 50.5433 67.7708 52.0169C67.6952 52.4703 67.6071 53.0748 67.5567 53.3771C67.5189 53.6667 67.4307 53.9438 67.3678 53.9816C67.3048 54.0194 67.2544 54.1831 67.2544 54.3468C67.2544 54.5106 67.204 54.6869 67.1285 54.7247C67.0655 54.7625 67.0025 54.9136 67.0025 55.0521C67.0025 55.1781 66.9521 55.3922 66.8892 55.5181C66.8262 55.6315 66.5869 56.1227 66.3602 56.6139C66.1335 57.0924 65.6675 57.9111 65.3401 58.4149C65.0126 58.9312 64.7355 59.372 64.7355 59.4224C64.7355 59.4602 64.6222 59.6113 64.4836 59.7625L64.2317 60.0269L64.5466 60.3292C64.7229 60.4929 64.8741 60.6063 64.8992 60.5685C65.869 59.372 67.7582 56.1605 67.7582 55.7071C67.7582 55.6441 67.8715 55.3544 68.0101 55.0647C68.1486 54.7877 68.262 54.4098 68.262 54.2335C68.262 54.0572 68.3123 53.8934 68.3753 53.8557C68.5013 53.7801 68.6146 53.1252 68.7154 51.9539C68.7531 51.5383 68.8413 51.1479 68.9043 51.0723C68.9673 51.0093 69.0176 50.3292 69.0176 49.561C69.0176 48.7927 68.9673 48.1126 68.9043 48.0496C68.8413 47.9741 68.7531 47.5836 68.7154 47.168C68.6146 45.9967 68.5013 45.3418 68.3879 45.3418C68.3375 45.3418 68.262 45.1529 68.2242 44.9262C68.1738 44.7121 68.1108 44.3343 68.0605 44.1076C67.9723 43.6542 68.1612 43.3267 68.5013 43.3267C68.6272 43.3267 68.9547 43.2133 69.2443 43.0748C69.5214 42.9363 69.8363 42.8229 69.9118 42.8229C70.1008 42.8229 70.8942 42.5836 71.1839 42.4325C71.3098 42.3695 71.5239 42.3191 71.6625 42.3191C71.801 42.3191 72.0277 42.2562 72.1662 42.1932C72.3048 42.1176 72.5315 42.0043 72.67 41.9413C72.8086 41.8657 73.0353 41.8154 73.1738 41.8154C73.3123 41.8154 73.539 41.7524 73.6776 41.6894C73.8161 41.6139 74.0428 41.5005 74.1814 41.4375C74.3199 41.362 74.5466 41.3116 74.6851 41.3116C74.8237 41.3116 75.063 41.2486 75.2267 41.1605C75.8186 40.8582 75.9446 40.8078 76.1587 40.8078C76.4232 40.8078 77.2796 40.5181 77.4055 40.3922C77.4559 40.3418 77.6196 40.304 77.7708 40.304C77.9219 40.304 78.2746 40.1907 78.5642 40.0521C78.8413 39.9136 79.2191 39.8002 79.3955 39.8002C79.5718 39.8002 79.7481 39.7499 79.7859 39.6743C79.8237 39.5987 80 39.5484 80.1637 39.5484C80.3275 39.5484 80.5038 39.4854 80.5416 39.4224C80.5793 39.3468 80.7305 39.2965 80.869 39.2965C80.995 39.2965 81.2091 39.2461 81.335 39.1831C81.4484 39.1201 81.7758 39.0068 82.0529 38.9312C82.33 38.8431 82.67 38.7297 82.8086 38.6793C82.9471 38.6164 83.4887 38.44 84.005 38.2889C84.5214 38.1378 85.2267 37.8985 85.5668 37.7725C85.9068 37.634 86.2972 37.5332 86.4484 37.5332C86.5995 37.5332 86.7758 37.4829 86.8388 37.4325C86.9144 37.3695 87.2166 37.2562 87.5315 37.168C87.8463 37.0798 88.2116 36.9539 88.3501 36.9035C88.4887 36.8406 88.8287 36.7272 89.1058 36.639C89.3829 36.5635 89.7103 36.4501 89.8237 36.3872C90.1637 36.2108 90.7557 36.2486 90.9194 36.4501C91.0076 36.5509 91.0579 36.8531 91.0327 37.1176C90.995 37.5207 90.932 37.634 90.5542 37.8103C90.3149 37.9237 90 38.0244 89.8489 38.037C89.7103 38.037 89.3577 38.1504 89.068 38.2889C88.7909 38.4275 88.4761 38.5408 88.3879 38.5408C88.1738 38.5408 87.3048 38.8431 87.204 38.9564C87.1537 39.0068 86.9773 39.0446 86.8136 39.0446C86.6499 39.0446 86.4106 39.095 86.272 39.1705C86.1335 39.2335 85.9068 39.3468 85.7683 39.4224C85.6297 39.4854 85.3904 39.5484 85.2267 39.5484C85.063 39.5484 84.8867 39.5987 84.8111 39.6491C84.7481 39.7121 84.4458 39.8254 84.131 39.9136C83.8161 40.0018 83.4635 40.1277 83.3501 40.1907C83.2242 40.2536 82.9975 40.304 82.8338 40.304C82.67 40.304 82.4937 40.3544 82.4181 40.4048C82.3552 40.4678 81.8766 40.6441 81.3602 40.7952C80.8438 40.9589 80.3149 41.1353 80.2015 41.1982C80.0756 41.2612 79.8741 41.3116 79.7481 41.3116C79.6222 41.3116 79.2821 41.4249 78.9924 41.5635C78.7154 41.702 78.3627 41.8154 78.2116 41.8154C78.073 41.8154 77.8338 41.8783 77.67 41.9665C77.0655 42.2814 76.9395 42.3191 76.6625 42.3191C76.4987 42.3191 76.3224 42.3695 76.2469 42.4199C76.1839 42.4829 75.8816 42.5962 75.5668 42.6844C74.8992 42.8733 74.3451 43.0622 73.9924 43.2008C73.8539 43.2511 73.4887 43.3645 73.1738 43.4526C72.8589 43.5408 72.4937 43.6542 72.3552 43.7045C72.2166 43.7675 71.8766 43.8809 71.5995 43.969C71.3224 44.0446 70.995 44.1579 70.8816 44.2209C70.7557 44.2839 70.5542 44.3343 70.4408 44.3343C70.3149 44.3343 70.1008 44.4224 69.9748 44.5232C69.7733 44.6743 69.7607 44.7499 69.8741 44.8632C69.9622 44.9514 70.0252 45.2159 70.0252 45.4678C70.0252 45.7196 70.0756 45.9715 70.1385 46.0345C70.3275 46.236 70.4156 47.3821 70.4282 49.6239C70.4408 51.5383 70.3904 52.0673 70.0378 53.6542C69.9748 53.969 69.8741 54.3846 69.8363 54.5987C69.7607 54.964 69.7103 55.1151 69.4081 55.8204C69.3325 56.0219 69.2191 56.299 69.1562 56.4501C68.0353 59.3468 65.3275 62.8355 62.4685 65.0899C61.6877 65.7071 60.4786 66.5005 60.3275 66.5005C60.2771 66.5005 60.1637 66.5887 60.0756 66.6894C59.9874 66.7902 59.8363 66.8783 59.7481 66.8783C59.6474 66.8783 59.2947 66.9917 58.9673 67.1428C57.7456 67.6844 57.3174 67.8481 56.927 67.9363C56.7506 67.9615 56.3854 68.0622 56.1083 68.1378C55.8312 68.2259 55.3526 68.3141 55.0378 68.3519C54.7229 68.3771 54.3829 68.44 54.2821 68.4778C53.7531 68.7045 50.4786 68.8557 48.6398 68.7423C47.5945 68.6667 46.6499 68.6416 46.5617 68.6793C46.461 68.7171 46.3854 68.9312 46.3728 69.1705C46.3602 69.5987 46.3728 69.5987 47.0781 69.7625C47.5819 69.8632 48.6902 69.901 50.8186 69.8632C53.6398 69.8128 54.4333 69.7373 55.5416 69.4098C55.7809 69.3468 56.1839 69.2335 56.4232 69.1579C57.2166 68.9438 57.6448 68.7927 58.136 68.5786C58.4131 68.4652 58.7406 68.3267 58.8791 68.2637C59.4081 68.0748 61.9144 66.8154 62.2796 66.5761C62.4937 66.4249 62.8463 66.173 63.0605 65.9967C65.3149 64.2461 65.5164 64.1076 65.6927 64.1076C65.7809 64.1076 66.1839 64.4476 66.5869 64.8632C66.9899 65.2788 67.3678 65.6189 67.4433 65.6189C67.6196 65.6189 68.6902 64.4098 69.6348 63.1378C70.5542 61.9035 71.738 59.6239 72.1788 58.2511C72.267 57.9741 72.3804 57.6844 72.4181 57.6214C72.4685 57.5458 72.5693 57.2436 72.6574 56.9287C72.7456 56.6139 72.8715 56.236 72.9345 56.0723C72.9975 55.9086 73.0479 55.6189 73.0479 55.4174C73.0479 55.2159 73.1108 55.0144 73.1738 54.9766C73.2494 54.9388 73.2997 54.6869 73.2997 54.4224C73.2997 54.1705 73.3501 53.906 73.4131 53.8431C73.5264 53.7171 73.6272 53.1252 73.7531 51.828C73.7909 51.4123 73.8665 50.9589 73.9421 50.8204C74.005 50.6819 74.068 49.6869 74.0806 48.6164L74.1184 46.6768L74.5592 46.5635C74.7985 46.5005 75.5919 46.3997 76.3224 46.3368C79.8489 46.0345 82.5315 45.7826 84.5718 45.5811C86.2846 45.4174 88.0856 45.2411 89.6725 45.0899C90.403 45.0269 91.2846 44.9388 91.6247 44.8884C92.4181 44.8002 92.8589 45.1277 92.796 45.7574C92.7582 46.0975 92.6826 46.1856 92.2544 46.3368C91.9773 46.4375 91.1839 46.5635 90.4912 46.6139C89.7985 46.6768 88.5516 46.7776 87.7204 46.8531C86.8892 46.9287 85.6171 47.0421 84.8867 47.105C84.1562 47.168 82.9093 47.2814 82.1159 47.3569C79.597 47.5962 78.0605 47.7348 76.8262 47.8355L75.6297 47.9237L75.5416 49.6239C75.5038 50.5559 75.403 51.6894 75.3275 52.1428C75.0882 53.5156 74.9622 54.1957 74.8111 54.8506C74.7355 55.1907 74.6474 55.6441 74.6096 55.8582C74.5718 56.0597 74.4962 56.3494 74.4458 56.4879C74.3829 56.6264 74.2695 56.9035 74.194 57.0924C74.1184 57.2814 74.0554 57.5836 74.0554 57.7474C74.0554 57.9111 74.005 58.0874 73.9295 58.1252C73.8665 58.163 73.8035 58.3015 73.8035 58.44C73.8035 58.566 73.6776 58.9186 73.539 59.2209C73.3879 59.5106 73.2242 59.8758 73.1738 60.0144C72.9597 60.6315 71.8892 62.7096 71.7254 62.8481C71.6247 62.9363 71.5365 63.0748 71.5365 63.1504C71.5365 63.2889 71.3476 63.5282 70.1889 65.0144C69.2947 66.1479 66.5365 68.8934 66.2846 68.8934C66.2091 68.8934 66.0705 68.9816 65.9824 69.095C65.8312 69.2839 65.3526 69.6365 64.6222 70.0899C63.728 70.6693 63.3123 70.896 62.6952 71.2234C62.0781 71.5383 61.9647 71.639 61.9647 71.9413C61.9647 72.1302 62.0277 72.3191 62.0907 72.3569C62.1662 72.3947 62.2166 72.5458 62.2166 72.6844C62.2166 72.8103 62.2796 72.9237 62.3426 72.9237C62.4181 72.9237 62.4685 72.9992 62.4685 73.0874C62.4685 73.4023 62.7834 73.9312 62.9723 73.9312C63.073 73.9312 63.4761 73.7675 63.8539 73.566C64.2317 73.3645 64.8237 73.0622 65.1637 72.8859C65.5038 72.7096 65.8186 72.5081 65.8564 72.4451C65.9194 72.3443 66.3224 72.0673 67.2292 71.4753C67.3426 71.3997 67.5441 71.2486 67.6826 71.1227C67.8212 71.0093 67.9723 70.9086 68.0227 70.9086C68.073 70.9086 68.2872 70.7322 68.5139 70.5307C69.1688 69.9262 69.4333 70.0018 70.6045 71.173L71.6373 72.1932L72.3929 71.3997C72.8086 70.9589 73.5013 70.1655 73.9169 69.6491C74.3451 69.1327 74.7355 68.6416 74.7859 68.5786C74.8489 68.503 75.2015 68.0244 75.5668 67.5081C76.3728 66.4123 76.3476 66.4249 76.738 65.9338C76.9144 65.7196 77.0781 65.43 77.1285 65.2662C77.3174 64.6617 78.136 64.6113 79.0302 65.1403C79.5466 65.4426 79.7985 65.3796 80 64.901C80.0756 64.7121 80.3401 64.1201 80.5793 63.6038C80.8186 63.0874 81.0327 62.571 81.0453 62.4703C81.0705 62.3695 81.2217 61.9917 81.398 61.6516C81.5617 61.299 81.801 60.7574 81.927 60.43C82.2796 59.4854 82.5315 59.2839 83.2997 59.372C84.9118 59.5484 84.8111 59.561 84.9244 59.0068C84.9874 58.7297 85.0882 58.4023 85.1511 58.2889C85.2141 58.163 85.2645 57.8733 85.2645 57.634C85.2645 57.3947 85.3149 57.168 85.3778 57.1302C85.4282 57.0924 85.5164 56.6894 85.5542 56.2486C85.5919 55.7952 85.7305 55.2411 85.8312 55.0269L86.0453 54.6365L87.3048 54.6743L88.5642 54.7247L88.602 54.032C88.6524 52.9111 88.8035 52.0924 89.0176 51.8531C89.1814 51.6768 89.4333 51.639 90.7305 51.639C92.4181 51.639 92.8086 51.7524 92.9975 52.3065C93.1108 52.6088 93.073 52.7096 92.7204 53.0496C92.33 53.4526 92.3048 53.4526 91.7506 53.3015C91.4358 53.2133 90.9824 53.1504 90.7557 53.1504C90.3526 53.1504 90.3149 53.1756 90.1763 53.7801C90.1008 54.1201 90.063 54.4476 90.0882 54.5106C90.1259 54.561 90.1008 54.8632 90.0378 55.1781C89.9622 55.4803 89.8867 55.9967 89.8615 56.3116C89.8237 56.6264 89.7481 57.0421 89.6725 57.231C89.6096 57.4199 89.5466 57.7599 89.5466 57.9992C89.5466 58.3393 89.6222 58.4652 89.9622 58.6667C90.1763 58.8053 90.5038 58.9564 90.6801 59.0068C90.8438 59.0572 91.1713 59.2209 91.398 59.372C91.738 59.5861 91.8136 59.7121 91.8136 60.0773C91.8136 60.4426 91.738 60.5685 91.461 60.7322C91.1083 60.9463 91.0705 60.9338 89.9622 60.4174C89.3325 60.1277 88.6524 59.8128 88.4257 59.7247C88.2116 59.6239 88.0101 59.435 87.9723 59.2839C87.8967 58.9942 88.073 57.168 88.2242 56.7272C88.2872 56.5131 88.2242 56.4501 87.796 56.299C87.5063 56.2108 87.2418 56.173 87.1914 56.2108C87.1033 56.3116 86.8766 57.5962 86.8766 58.0622C86.8766 58.2385 86.8262 58.4526 86.7506 58.5408C86.6751 58.629 86.5995 58.8179 86.5743 58.9816C86.4987 59.5484 85.8564 61.5509 85.5038 62.3191C85.3023 62.7599 85.1385 63.163 85.1385 63.2385C85.1385 63.3015 84.9622 63.7045 84.7481 64.1201C84.534 64.5484 84.3955 64.964 84.4333 65.0521C84.471 65.1529 85.2393 65.5937 86.1587 66.0597C88.4005 67.1806 88.539 67.2814 88.539 67.8733C88.539 68.2889 88.4887 68.3771 88.1864 68.503C87.8589 68.6416 87.6952 68.5912 86.5113 67.9992C85.7935 67.6466 84.7733 67.1428 84.2569 66.8783C83.1108 66.3116 82.4937 65.8078 82.4937 65.4678C82.4937 65.3292 82.6574 64.8632 82.8589 64.435C83.602 62.8607 84.005 61.8783 84.005 61.6768C84.005 61.5635 84.068 61.4627 84.131 61.4627C84.2066 61.4627 84.2569 61.3746 84.2569 61.2738C84.2569 61.173 84.1436 61.0849 84.0176 61.0849C83.8791 61.0849 83.6902 61.0471 83.5768 61.0093C83.4509 60.9589 83.3501 61.0219 83.2997 61.1605C83.1864 61.4879 82.0277 64.1705 81.8766 64.4476C81.8136 64.5735 81.6625 64.9262 81.5491 65.2411C80.9698 66.7272 80.7935 67.0295 79.6977 68.4778C79.3577 68.906 79.0932 69.3091 79.0932 69.3594C79.0932 69.4098 78.9673 69.5987 78.8287 69.7751C78.6902 69.9514 78.2368 70.5937 77.8086 71.2108L77.0529 72.3191L78.1612 73.44C78.7783 74.0572 79.3451 74.561 79.4207 74.561C79.4962 74.561 79.9244 74.1453 80.3652 73.629C81.5617 72.231 81.6247 72.2436 83.9799 74.3091C84.4962 74.7625 84.2191 75.6945 83.5516 75.6945C83.3879 75.6945 82.9219 75.4426 82.5063 75.1277C81.7884 74.5735 81.4861 74.4476 81.4861 74.6743C81.4861 74.7751 80.1385 76.2486 78.8287 77.5962C78.5894 77.8481 78.2872 78.2133 78.1738 78.3897C77.9471 78.7171 77.9597 78.7171 78.539 79.3468C78.9799 79.8254 79.131 80.0773 79.1184 80.3544C79.1058 80.896 79.0176 80.9841 78.4005 80.9841C77.8841 80.9841 77.8086 80.9338 76.9647 80.0018C75.7809 78.7045 75.7809 78.566 76.9521 77.3947C77.4307 76.9161 77.8338 76.4501 77.8338 76.3494C77.8338 76.2612 77.9219 76.1605 78.0227 76.1227C78.1234 76.0723 78.2116 75.9841 78.2116 75.896C78.2116 75.8204 77.5567 75.0899 76.7632 74.2839C75.1259 72.6214 75.0504 72.4451 75.6549 71.5005C75.8438 71.2108 76.0579 70.8834 76.1335 70.77C76.1965 70.6567 76.4861 70.2536 76.7758 69.8884C77.0529 69.5106 77.4811 68.9186 77.7204 68.5786C77.9597 68.2259 78.2997 67.7474 78.5013 67.4955C78.8917 66.9791 78.9169 66.8154 78.6398 66.702C78.262 66.5635 78.1108 66.6264 77.8589 67.0547C77.7204 67.294 77.5063 67.5962 77.3929 67.7222C77.2796 67.8481 76.9647 68.2637 76.6877 68.6416C75.7809 69.9262 75.5038 70.2914 75.0504 70.7826C74.7985 71.0597 74.3703 71.5509 74.1058 71.8783C73.5768 72.5458 72.0277 74.0572 71.8892 74.0572C71.8388 74.0572 71.6751 74.1957 71.5113 74.3594C71.0579 74.8254 67.2418 77.3443 65.995 77.9992C64.6977 78.6793 64.4836 78.8431 64.597 79.0698C64.7607 79.4224 65.2015 80.3796 65.4282 80.9212C65.5416 81.1982 65.7683 81.702 65.932 82.0547C66.0957 82.3947 66.2972 82.8733 66.3854 83.1C66.4861 83.3141 66.5995 83.503 66.6499 83.503C66.7128 83.503 66.7506 83.5786 66.7506 83.6793C66.7506 84.032 66.9773 83.9942 68.0479 83.503C69.66 82.7474 69.7229 82.7599 70.8312 84.4602C71.3224 85.2033 71.398 85.4048 71.335 85.7448C71.2343 86.2234 71.1587 86.2864 70.6549 86.299C70.1889 86.3116 69.8992 86.0597 69.5214 85.3292C69.2066 84.7121 68.9924 84.6365 68.5139 85.0144C68.3375 85.1529 68.136 85.2662 68.0605 85.2662C67.9345 85.2662 67.0025 85.6945 65.8564 86.2864C65.6045 86.4249 65.3149 86.5257 65.2267 86.5257C65.1259 86.5257 64.9118 86.639 64.7355 86.7776C64.5592 86.9161 64.3199 87.0295 64.2066 87.0295C63.9295 87.0295 63.9295 87.0547 64.2191 87.6718C64.6222 88.503 64.6474 88.8305 64.3577 89.2083C64.2066 89.3972 64.005 89.5484 63.9043 89.5484C63.6398 89.5484 62.9723 89.032 62.9723 88.8305C62.9723 88.7423 62.9219 88.566 62.8589 88.44C62.796 88.3267 62.6826 88.0748 62.6071 87.8733C62.5315 87.6844 62.4055 87.3947 62.33 87.2436C62.1033 86.7524 62.2418 86.2486 62.6574 86.0093C62.8715 85.8834 63.136 85.7826 63.262 85.7826C63.3753 85.77 63.4761 85.7071 63.4761 85.6441C63.4761 85.5685 63.539 85.5181 63.602 85.5181C63.6776 85.5181 63.9798 85.4048 64.2569 85.2662C64.5466 85.1277 64.8489 85.0144 64.937 85.0144C65.0126 85.0144 65.1511 84.9388 65.2267 84.838C65.3275 84.7121 65.2897 84.498 65.0504 83.9312C64.8741 83.5282 64.6725 83.0748 64.6222 82.9363C64.5592 82.7977 64.3577 82.3569 64.1814 81.9539C64.005 81.5635 63.7028 80.9086 63.5264 80.5055C63.3501 80.1151 63.136 79.6491 63.073 79.4728C62.9975 79.2965 62.8967 79.0572 62.8338 78.9438C62.5819 78.4526 62.8589 77.7096 63.2997 77.7096C63.3879 77.7096 63.4761 77.6718 63.5013 77.6088C63.5264 77.5584 63.9043 77.3317 64.3577 77.0924C64.8111 76.8531 65.5038 76.4501 65.9068 76.1856C66.3098 75.9086 66.7254 75.6945 66.8262 75.6945C66.927 75.6945 67.0025 75.6441 67.0025 75.5685C67.0025 75.5055 67.2544 75.3292 67.5567 75.1907C67.8589 75.0395 68.2116 74.8254 68.3627 74.6869C68.5013 74.561 68.9169 74.2461 69.2947 74.0068C70.3904 73.3141 70.4156 73.2511 69.7733 72.6088C69.471 72.294 69.1688 72.0421 69.1184 72.0421C69.068 72.0421 68.9043 72.168 68.7406 72.3191C68.4509 72.6088 67.2544 73.4149 66.0579 74.1453C65.1763 74.6869 62.6322 75.9086 62.0025 76.0975C61.7003 76.1856 61.461 76.299 61.461 76.3494C61.461 76.4123 61.3602 76.4501 61.2343 76.4501C61.1083 76.4501 60.7683 76.5635 60.4786 76.702C60.2015 76.8406 59.8992 76.9539 59.8237 76.9539C59.7607 76.9539 59.5844 77.0043 59.4458 77.0798C59.3073 77.1428 59.0806 77.2562 58.9421 77.3317C58.8035 77.3947 58.5642 77.4577 58.4005 77.4577C58.2368 77.4577 58.0605 77.4955 58.0101 77.5458C57.8841 77.6844 57.0151 77.9615 56.7254 77.9615C56.3602 77.9615 56.0957 78.4778 56.2846 78.8179C56.3602 78.9564 56.4232 79.3594 56.4232 79.7121C56.4232 80.0521 56.4736 80.367 56.5365 80.4048C56.5869 80.4426 56.6751 80.7952 56.7254 81.1982C56.8136 81.9665 56.9647 82.9741 57.1788 84.2839C57.2544 84.7247 57.3426 85.3544 57.3804 85.7071C57.4181 86.0471 57.5063 86.3872 57.5693 86.4627C57.6322 86.5257 57.6826 86.7398 57.6826 86.9287C57.6826 87.4073 57.9219 89.0068 58.0856 89.561C58.199 89.9514 58.1738 90.0773 57.9849 90.3544C57.33 91.2612 56.5365 90.6567 56.3728 89.1076C56.2091 87.5584 56.1461 87.2058 56.0453 86.9665C55.9824 86.828 55.9068 86.3746 55.8564 85.9589C55.6927 84.4098 55.6423 84.0698 55.529 83.9438C55.466 83.8809 55.4156 83.5156 55.4156 83.1252C55.4156 82.7348 55.3652 82.3695 55.3023 82.3065C55.2393 82.231 55.1511 81.8909 55.1134 81.5509C55.0756 81.1982 54.9874 80.5559 54.9244 80.1025C54.8489 79.6491 54.7355 78.8934 54.6725 78.4275C54.5088 77.3191 54.6096 77.0547 55.3149 76.828C55.6045 76.7398 55.9068 76.6139 55.9698 76.5509C56.0453 76.5005 56.2469 76.4501 56.4358 76.4501C56.6247 76.4501 56.8262 76.3872 56.864 76.3242C56.9018 76.2612 57.1033 76.1982 57.3048 76.1982C57.5063 76.1982 57.7078 76.1353 57.7456 76.0723C57.7834 75.9967 57.9597 75.9463 58.136 75.9463C58.2997 75.9463 58.4383 75.8834 58.4383 75.8204C58.4383 75.7448 58.539 75.6945 58.665 75.6945C58.7909 75.6945 59.1184 75.5937 59.3955 75.4552C59.66 75.3292 60.1134 75.1529 60.3904 75.0521C60.6675 74.964 60.995 74.8002 61.1083 74.6869C61.2972 74.5232 61.3098 74.4476 61.1713 74.1831C61.0831 74.0068 60.8816 73.5408 60.7179 73.1504C60.3904 72.3317 60.2771 72.2814 59.471 72.6718C59.194 72.8103 58.8791 72.9237 58.7909 72.9237C58.7028 72.9237 58.3123 73.037 57.9345 73.1756C57.5567 73.3141 57.0907 73.4275 56.9018 73.4275C56.7128 73.4275 56.5239 73.4778 56.4861 73.5534C56.4484 73.6164 56.1965 73.6793 55.932 73.6793C55.6801 73.6793 55.4156 73.7297 55.3401 73.7927C55.1889 73.9438 54.1436 74.0572 49.8741 74.3972L48.6776 74.498L48.5894 75.5685C48.4635 77.105 48.262 79.4098 48.0982 81.236C48.0227 82.105 47.9345 83.2637 47.8967 83.8179C47.8715 84.372 47.796 85.3292 47.7204 85.9589C47.6196 86.7776 47.6196 87.1932 47.7204 87.4325C47.8463 87.7851 47.8589 87.7851 49.0806 87.7851C50.1637 87.7851 50.3275 87.8229 50.5919 88.0622C50.8312 88.2889 50.8816 88.4526 50.8816 89.1579C50.8816 89.6113 50.9446 90.2033 51.0202 90.4678C51.1335 90.8708 51.1083 90.9841 50.8816 91.3116C50.6927 91.5887 50.5038 91.6894 50.2519 91.6894C49.7229 91.6894 49.471 91.236 49.3955 90.1907L49.3325 89.3343L47.9975 89.2461C47.267 89.1957 46.0076 89.1327 45.2015 89.095L43.7531 89.0194L43.5894 89.6239C43.5013 89.964 43.4383 90.3418 43.4383 90.4552C43.4383 90.7196 42.9975 91.0597 42.6574 91.0597C42.3174 91.0597 41.8136 90.6819 41.8136 90.43C41.8136 90.3166 41.9521 89.6743 42.1159 88.9942C42.4937 87.4703 42.7204 87.231 43.6398 87.3569C43.9924 87.3947 44.6725 87.4451 45.1511 87.4577L46.0327 87.4703L46.1209 86.3368C46.2343 84.9514 46.4232 82.571 46.5995 80.5433C46.6625 79.7121 46.7632 78.3771 46.801 77.5836C46.8388 76.7902 46.927 76.0849 46.9899 76.0093C47.0529 75.9463 47.1033 75.3418 47.1033 74.6743C47.1033 73.5786 47.1285 73.4023 47.3929 73.1126L47.67 72.7851L50.4786 72.7348C52.0277 72.7096 53.3627 72.634 53.4383 72.571C53.5264 72.4955 53.8791 72.4199 54.2191 72.3821C54.5718 72.3443 55.1134 72.2562 55.4534 72.1806C55.7809 72.105 56.2846 71.9917 56.5869 71.9287C57.6322 71.6894 57.8086 71.639 57.8841 71.5257C57.9219 71.4627 58.1108 71.4123 58.2997 71.4123C58.4887 71.4123 58.6902 71.362 58.7657 71.3116C58.8287 71.2486 59.0806 71.1353 59.3199 71.0471C59.5592 70.9589 60.1008 70.7196 60.5164 70.5307C60.932 70.3418 61.4106 70.1277 61.5869 70.0395C62.0403 69.8506 62.9345 69.3343 63.1612 69.1453C63.262 69.0572 63.5139 68.8934 63.7154 68.7801C63.9169 68.6667 64.2443 68.4526 64.4458 68.3015C64.6348 68.1504 65.0504 67.8481 65.3526 67.6088C66.1587 67.0043 66.2343 66.828 65.869 66.4375C65.7053 66.2612 65.529 66.1227 65.4912 66.1227C65.4408 66.1227 65.2267 66.2738 65.0126 66.4627C64.3955 67.0169 63.8665 67.4073 62.9471 67.9741C62.0655 68.5156 59.8489 69.6491 59.6725 69.6491C59.6096 69.6491 59.3199 69.7625 59.0428 69.901C58.7531 70.0395 58.4257 70.1529 58.3123 70.1529C58.199 70.1529 58.0605 70.2033 57.9849 70.2536C57.9219 70.3166 57.6196 70.43 57.3048 70.5181C56.9899 70.6063 56.6247 70.7322 56.4861 70.7826C55.9446 70.9967 55.1763 71.1605 54.7481 71.1605C54.4962 71.1605 54.2695 71.2108 54.2317 71.2738C54.194 71.3368 53.1864 71.4123 51.9899 71.4627C49.2695 71.5635 46.7758 71.3746 44.7103 70.9212C43.6272 70.6945 43.3501 70.6063 41.8766 70.0269C40.7809 69.6113 39.6474 69.0572 39.1184 68.7045C38.8665 68.5282 38.6272 68.3897 38.5894 68.3897C38.2746 68.3897 36.2972 66.7776 34.9874 65.4678C33.4635 63.9438 33.1864 63.6038 32.3174 62.231C32.1159 61.9161 31.7632 61.362 31.5239 61.0093C31.2972 60.6567 31.1083 60.2788 31.1083 60.1781C31.1083 60.0647 31.0327 59.9136 30.932 59.838C30.8312 59.7499 30.6549 59.4098 30.529 59.0572C30.403 58.7171 30.2519 58.44 30.2015 58.44C30.1511 58.44 30.1008 58.3267 30.1008 58.2008C30.1008 58.0622 30.0504 57.9111 29.9748 57.8733C29.9118 57.8355 29.8489 57.697 29.8489 57.571C29.8489 57.4577 29.7355 57.1176 29.597 56.828C29.4584 56.5509 29.3451 56.1982 29.3451 56.0471C29.3451 55.9086 29.2947 55.6945 29.2317 55.5685C29.0428 55.2033 28.8413 54.4728 28.8413 54.1831C28.8413 53.8683 28.602 53.8305 27.9723 54.0446C27.5567 54.1957 27.4685 54.498 27.6952 55.0647C27.7582 55.2285 27.8841 55.6063 27.9723 55.9212C28.0605 56.236 28.1738 56.5383 28.2368 56.6139C28.2872 56.6768 28.3375 56.8028 28.3375 56.8909C28.3375 57.0421 28.7028 57.9489 28.9798 58.4652C29.0428 58.5912 29.1436 58.8053 29.2191 58.9438C29.2821 59.0824 29.4081 59.3217 29.4962 59.4728C29.5844 59.6365 29.7733 60.0269 29.937 60.3544C30.1008 60.6693 30.3275 61.0093 30.4156 61.0849C30.5164 61.173 30.6045 61.2864 30.6045 61.3494C30.6045 61.3997 30.7935 61.7146 31.0202 62.0295C31.2343 62.3569 31.5113 62.7474 31.6121 62.8985C32.1285 63.6667 33.8413 65.6945 35.0252 66.9413C36.4987 68.4778 36.4861 68.4526 35.932 69.2839C35.6927 69.6617 35.4534 69.9892 35.403 70.0269C35.3652 70.0647 35.2141 70.2536 35.0756 70.4552C34.937 70.6567 34.7103 70.9715 34.5718 71.173C34.4332 71.362 33.8413 72.1932 33.2494 73.0118C32.67 73.8305 32.1537 74.5232 32.1159 74.561C32.0781 74.5987 31.8262 74.9388 31.5743 75.3166C31.3098 75.6945 30.9446 76.2108 30.7557 76.4627C30.5668 76.7146 30.2267 77.1806 30.0126 77.4955L29.597 78.0622L30.0756 78.44C30.6423 78.8809 31.864 79.6995 32.4811 80.0395C34.194 80.9967 34.3703 81.1227 34.4458 81.5005C34.4962 81.7272 34.471 81.9539 34.3829 82.0547C34.068 82.4325 33.5139 83.629 33.5768 83.7801C33.6146 83.8683 34.1688 84.1957 34.7985 84.498C35.932 85.0395 36.6499 85.5559 36.6499 85.8204C36.6499 85.896 36.4736 86.3242 36.2469 86.7776C36.0327 87.231 35.7683 87.7851 35.6549 88.0244C35.3652 88.6416 34.9874 88.8683 34.5088 88.6667C34.2947 88.5786 34.131 88.44 34.1184 88.3645C34.0806 87.9992 34.1814 87.5584 34.3955 87.105C34.5214 86.828 34.6348 86.5131 34.6348 86.3872C34.6348 86.2486 33.9043 85.8204 32.1662 84.9514C30.8186 84.2839 29.6977 83.7549 29.6851 83.7675C29.6725 83.7927 29.534 83.9942 29.3703 84.2209C29.2191 84.4476 29.0932 84.6617 29.0932 84.7121C29.0932 84.9262 28.6524 85.2662 28.3753 85.2662C27.5189 85.2662 27.3174 84.5358 27.9219 83.5912C28.1108 83.3015 28.3879 82.8355 28.5264 82.5584C28.7531 82.105 28.8287 82.0547 29.3073 82.0169C29.7229 81.9917 30.0252 82.0798 30.806 82.4955C31.3476 82.7725 31.8514 82.9866 31.9521 82.9489C32.0403 82.9111 32.2166 82.6718 32.33 82.4199C32.5945 81.8909 32.6322 81.9287 31.1713 81.0723C30.6927 80.7952 30.2141 80.4804 30.1259 80.3922C30.0252 80.304 29.8489 80.1655 29.7229 80.1025C28.9421 79.6869 26.3602 77.5836 24.8237 76.1101C24.2947 75.6063 23.7783 75.1907 23.665 75.1907C23.4005 75.1907 22.67 75.8582 22.67 76.1101C22.67 76.2108 23.0982 76.6768 23.6146 77.1554C24.2947 77.7725 24.5592 78.1 24.5592 78.3141C24.5592 78.6038 23.7531 79.8506 23.5768 79.8506C23.5264 79.8506 23.3753 80.0269 23.2368 80.2285C22.8967 80.7448 22.33 81.0345 22.0529 80.833C21.398 80.3418 21.3854 80.0269 22.0403 79.2083C22.3174 78.8557 22.5441 78.5282 22.5441 78.4652C22.5441 78.4149 22.1285 77.9489 21.6247 77.4325C21.1209 76.9287 20.5038 76.2612 20.2519 75.9463C20 75.6315 19.5844 75.1655 19.3325 74.901L18.8791 74.4098L18.4761 74.7373C18.2494 74.9136 17.8841 75.1529 17.6574 75.2662C17.2544 75.4678 17.2166 75.4678 16.9018 75.2285C16.1461 74.6743 16.461 74.1076 18.1864 72.9741C18.9798 72.4451 19.068 72.4073 19.3577 72.5584C19.534 72.6466 19.7859 72.8985 19.937 73.1126C20.0882 73.3141 20.4534 73.7423 20.7431 74.0572C21.0453 74.372 21.2846 74.6617 21.2846 74.7121C21.2846 74.8884 21.5365 74.8128 21.8262 74.561C21.9773 74.435 22.3929 74.0698 22.7456 73.7423C23.5768 73.0118 23.8791 73.0118 24.597 73.7171C27.0025 76.0345 28.0605 76.9539 28.3249 76.9539C28.4005 76.9539 28.7154 76.6013 29.0176 76.173C29.3325 75.7322 29.7103 75.2159 29.8741 75.0144C30.0378 74.8128 30.403 74.2965 30.7053 73.8809C30.995 73.4526 31.3854 72.9111 31.5491 72.6718C31.7254 72.4325 32.1788 71.8028 32.5567 71.2864C32.9345 70.77 33.5013 69.9514 33.8287 69.4854L34.4081 68.629L33.7909 67.9615C32.2922 66.3242 31.3854 65.2662 30.8312 64.498C29.2569 62.294 28.665 61.3494 27.796 59.6365C26.9773 58.0244 26.8262 57.6718 26.8262 57.4451C26.8262 57.3065 26.7758 57.1554 26.7003 57.1176C26.6373 57.0798 26.5743 56.9035 26.5743 56.7398C26.5743 56.5761 26.5239 56.3997 26.4484 56.362C26.3854 56.3242 26.3224 56.1227 26.3224 55.9212C26.3224 55.7196 26.272 55.5181 26.1965 55.4803C26.1335 55.4426 26.0705 55.1781 26.0705 54.9136C26.0705 54.6491 26.0202 54.3846 25.9446 54.3468C25.8816 54.3091 25.8186 53.9438 25.8186 53.5408C25.8186 53.1504 25.7557 52.7599 25.6927 52.697C25.6045 52.6088 25.5793 51.5383 25.6171 49.5484C25.6801 46.3116 25.7683 44.9766 25.9572 44.7877C26.0202 44.7121 26.0705 44.4476 26.0705 44.1957C26.0705 43.9312 26.1335 43.6793 26.1965 43.6416C26.272 43.6038 26.3224 43.4023 26.3224 43.2008C26.3224 42.9992 26.3728 42.7096 26.4358 42.5458C26.4987 42.3821 26.6247 42.0043 26.7128 41.6894C26.801 41.3746 26.9144 41.0723 26.9773 41.0093C27.0277 40.9338 27.0781 40.7574 27.0781 40.6063C27.0781 40.4426 27.1411 40.2788 27.204 40.2411C27.2796 40.2033 27.33 40.0521 27.33 39.9262C27.33 39.7877 27.4307 39.498 27.5567 39.2713C27.6826 39.0446 27.8589 38.6542 27.9597 38.4149C28.0479 38.1756 28.3123 37.5962 28.539 37.1428C29.005 36.2108 29.0302 36.299 28.1234 35.6693C27.5945 35.304 27.5063 35.3166 27.2544 35.7952C27.1411 36.0219 27.0025 36.236 26.9647 36.2738C26.927 36.3116 26.8136 36.5635 26.7128 36.8406C26.5491 37.3191 25.932 38.7171 25.6801 39.1957C25.6171 39.3217 25.5668 39.5358 25.5668 39.6617C25.5668 39.8002 25.5164 39.9514 25.4408 39.9892C25.3778 40.0269 25.3149 40.1781 25.3149 40.3166C25.3149 40.4426 25.2519 40.6693 25.1889 40.8078C25.1259 40.9463 25 41.173 24.937 41.3116C24.8741 41.4501 24.8111 41.7272 24.8111 41.9413C24.8111 42.1428 24.7607 42.3191 24.6977 42.3191C24.5844 42.3191 24.4836 42.7348 24.3577 43.7927C24.3073 44.095 24.2317 44.3343 24.1814 44.3343C24.131 44.3343 24.0554 44.5735 24.005 44.8632C23.9673 45.1655 23.8791 45.7448 23.7909 46.1605C23.7154 46.5761 23.6146 48.0496 23.5642 49.435L23.4887 51.9539L23.0479 52.1554C22.7204 52.3065 22.0025 52.3821 20.3401 52.4577C19.0932 52.5081 17.3678 52.5836 16.4987 52.634L14.937 52.7096L14.9748 53.8431C14.9874 54.4602 15.063 55.0269 15.1259 55.1025C15.1889 55.1655 15.2393 55.4929 15.2393 55.833C15.2393 56.1605 15.2897 56.5383 15.3652 56.6642C15.5416 57.0043 15.5793 58.6542 15.4156 58.8179C15.3401 58.8934 14.8363 59.0572 14.2947 59.1957C13.7657 59.3217 13.2872 59.4602 13.2494 59.498C13.1738 59.5861 13.4635 60.5811 13.6272 60.77C13.6776 60.833 13.728 61.0093 13.728 61.173C13.728 61.3368 13.7783 61.5635 13.8413 61.6894C13.9043 61.8028 14.0806 62.2436 14.2317 62.6592C14.3829 63.0748 14.6222 63.6542 14.7481 63.9438C14.8867 64.2461 14.9874 64.5358 14.9874 64.6113C14.9874 64.6743 15.1008 64.9262 15.2393 65.1781C15.3778 65.43 15.4912 65.7448 15.4912 65.8834C15.4912 66.2864 13.4005 67.634 12.7582 67.634C12.3174 67.634 11.9647 67.294 11.9647 66.8783C11.9647 66.4879 12.1914 66.2612 12.9345 65.8834C13.5642 65.5685 13.6272 65.2285 13.2242 64.3846C13.0856 64.1076 12.9723 63.8053 12.9723 63.7297C12.9723 63.6667 12.9219 63.503 12.8589 63.3771C12.796 63.2637 12.6322 62.8481 12.4937 62.4703C12.3678 62.0924 12.1537 61.4879 12.0277 61.1479C11.9144 60.7952 11.7758 60.3922 11.7506 60.2411C11.6751 59.9262 11.4106 59.9262 10.5542 60.2914C10.1259 60.4678 10.0756 60.4678 9.78589 60.2536C9.13098 59.7625 9.29471 59.032 10.1385 58.7423C10.4156 58.6416 10.7431 58.566 10.869 58.566C11.1587 58.566 11.272 58.2385 11.1083 57.8985C11.0327 57.7474 10.9446 57.4325 10.9068 57.2058C10.869 56.9917 10.7935 56.6139 10.7557 56.3872C10.7179 56.173 10.6423 55.8708 10.5793 55.7322C10.5164 55.5937 10.4408 55.2536 10.403 54.9766C10.1511 53.1882 10.0378 52.9615 9.48363 53.1126C9.00504 53.2259 8.38791 53.037 8.14861 52.697C7.9471 52.4325 7.93451 52.3191 8.06045 52.0295C8.21159 51.639 8.33753 51.6013 10.0504 51.4375C10.8942 51.362 10.9824 51.3746 11.2091 51.639C11.3476 51.8028 11.461 52.1176 11.461 52.3443C11.461 52.571 11.5239 52.7977 11.5869 52.8355C11.6625 52.8733 11.7128 53.1126 11.7128 53.3645C11.7128 53.6164 11.7632 54.0194 11.8388 54.2713C12.1159 55.3544 12.3678 56.3997 12.4559 56.8657C12.6071 57.7222 12.7834 57.9363 13.262 57.8481C13.7028 57.7725 14.0176 57.4703 13.8791 57.2562C13.665 56.9035 13.3627 53.629 13.1864 49.498L13.0353 45.9086L12.2796 45.8204C11.864 45.77 11.1335 45.6693 10.6423 45.5937C10.1637 45.5181 9.49622 45.43 9.18136 45.3922C8.74055 45.3418 8.50126 45.2159 8.23678 44.9514C7.89673 44.5987 7.88413 44.561 8.07305 44.2335C8.24937 43.906 8.29975 43.8934 9.19395 43.906C10.3275 43.9312 11.4358 44.0572 11.7758 44.2083C11.9144 44.2713 12.3929 44.3468 12.8463 44.3846C14.068 44.4602 14.4458 44.5735 14.5592 44.8884C14.6222 45.0269 14.6977 46.4879 14.7355 48.1126L14.7985 51.0723L15.869 51.0597C18.0479 51.0345 21.6121 50.8456 21.8136 50.7448C21.9899 50.6441 22.0277 50.3292 22.0907 48.5912C22.1662 46.2738 22.267 45.2033 22.4307 45.0269C22.4937 44.964 22.5441 44.6995 22.5441 44.4476C22.5441 44.1831 22.6071 43.9312 22.67 43.8934C22.7456 43.8557 22.796 43.5912 22.796 43.3267C22.796 43.0622 22.8589 42.7977 22.9219 42.7599C22.9849 42.7222 23.0479 42.5207 23.0479 42.3191C23.0479 42.1176 23.1108 41.9161 23.1738 41.8783C23.2494 41.8406 23.2997 41.6768 23.2997 41.5257C23.2997 41.2234 23.5768 40.3544 23.7154 40.2285C23.7657 40.1781 23.8035 40.0018 23.8035 39.8506C23.8035 39.6869 23.8539 39.5232 23.9295 39.4854C23.9924 39.4476 24.0554 39.2839 24.0554 39.1201C24.0554 38.969 24.1058 38.7927 24.1562 38.7171C24.2191 38.6542 24.3325 38.4023 24.4207 38.163C24.9622 36.6642 26.801 33.2259 27.4559 32.4955C27.6071 32.3191 27.9597 31.8909 28.2242 31.5257C28.8917 30.6315 31.9773 27.571 32.7078 27.0673C33.0479 26.8406 33.5642 26.4501 33.8791 26.1856C34.5466 25.6441 36.272 24.5232 37.3426 23.9312C37.7582 23.7045 38.1864 23.4526 38.2872 23.3645C38.3879 23.2889 38.7028 23.1126 38.9798 22.9866C39.5844 22.7222 39.6977 22.571 39.534 22.2814C39.471 22.1554 39.4207 21.9413 39.4207 21.8028C39.4207 21.3368 39.0176 20.6441 38.8035 20.7322C38.6902 20.77 38.4887 20.8456 38.3501 20.8834C38.2116 20.9212 37.9471 21.0471 37.7582 21.1856C37.5819 21.3116 37.3678 21.4123 37.2922 21.4123C37.1159 21.4123 37.0151 21.4627 35.3526 22.4451C34.597 22.8733 33.6524 23.503 33.2368 23.8305C32.204 24.6743 32.0025 24.6491 30.9194 23.5534C30.4408 23.0622 30.0126 22.6718 29.9622 22.6718C29.8741 22.6718 28.728 23.5408 27.8338 24.2839C27.1537 24.8506 24.7859 27.2184 24.2065 27.9111C23.9798 28.1756 23.6902 28.5912 23.5516 28.8053C23.199 29.3972 22.5315 29.3846 21.738 28.7801C21.0327 28.2511 20.869 28.2385 20.5668 28.7045C20.4408 28.906 19.937 29.6491 19.4458 30.367C18.9547 31.0849 18.5139 31.7902 18.4635 31.9413C18.4257 32.0798 18.2494 32.2814 18.073 32.3695C17.7834 32.5207 17.6322 32.4703 16.2217 31.7398C12.6448 29.9262 12.9723 30.1277 12.9723 29.6869C12.9723 29.2083 13.0479 29.0824 13.5013 28.8557C13.8035 28.7045 13.8665 28.7171 14.2065 28.9564C14.4207 29.095 14.6348 29.2209 14.6977 29.2209C14.8489 29.2209 16.2217 29.9388 16.6499 30.2411C17.0655 30.5433 17.5189 30.5181 17.6952 30.1655C17.9597 29.6617 18.5139 28.8809 20.403 26.3746C20.7683 25.896 21.3602 25.2033 22.204 24.2587C22.5315 23.8934 22.796 23.5282 22.796 23.44C22.796 23.3645 22.6826 23.163 22.5441 23.0118L22.2922 22.7474L21.3098 23.7171C20.7683 24.2461 20.2393 24.6869 20.1134 24.6869C19.7859 24.6869 19.2569 24.3846 18.9043 24.0068C18.728 23.8305 18.539 23.6793 18.4635 23.6793C18.1612 23.6793 17.7582 23.1252 17.7582 22.697C17.7582 21.8657 18.4131 21.6894 19.2443 22.3065C19.534 22.5207 19.8741 22.6718 20.0126 22.6466C20.2897 22.6088 23.8035 18.9438 23.8035 18.7045C23.8035 18.6164 23.7154 18.4778 23.6146 18.3897C23.3375 18.163 23.0479 17.5207 23.0479 17.1428C23.0479 16.9035 23.1612 16.7398 23.4131 16.5887C23.7657 16.3872 23.8035 16.3872 24.1688 16.5887C24.3829 16.7146 24.5592 16.8783 24.5592 16.9539C24.5592 17.0295 24.6851 17.2058 24.8489 17.3569C25 17.4955 25.3023 17.9363 25.5038 18.3141L25.8816 19.0194L24.66 20.2411C23.9798 20.9212 23.4257 21.5257 23.4257 21.5761C23.4257 21.6264 23.7406 21.9917 24.1184 22.3821C24.4962 22.7851 24.8111 23.2259 24.8111 23.3645C24.8111 23.503 24.597 23.8683 24.3325 24.1705C24.0806 24.4728 23.5894 25.0395 23.2368 25.4552C21.9395 26.9539 21.8514 27.1302 22.33 27.2562C22.5441 27.3065 22.733 27.1932 23.2116 26.702C23.539 26.362 23.8035 26.0345 23.8035 25.9715C23.8035 25.7574 26.5491 23.2385 27.9597 22.1554C28.4131 21.8028 28.8665 21.4501 28.9673 21.3746C29.4081 21.0219 30.3778 20.4048 30.4912 20.4048C30.5542 20.4048 30.6045 20.3544 30.6045 20.304C30.6045 20.2536 30.9572 19.9892 31.398 19.7247C31.8262 19.4728 32.5819 19.0068 33.0605 18.7045C33.5516 18.3897 34.5214 17.8481 35.2393 17.4829C35.9446 17.1302 36.5239 16.7524 36.5239 16.6642C36.5239 16.5761 36.3854 16.1479 36.2217 15.7196C36.0579 15.2788 35.8186 14.6113 35.6801 14.2335C35.5416 13.8179 35.3652 13.5282 35.2393 13.503C35.1259 13.4778 34.6725 13.6164 34.2317 13.7927C33.7909 13.969 33.3375 14.1453 33.2242 14.1705C33.0982 14.1957 32.9093 14.2713 32.7834 14.3343C32.6448 14.4224 32.4685 14.4098 32.2796 14.3217C31.8892 14.1453 30.8564 12.3695 30.8564 11.8783C30.8564 11.4123 31.2469 11.0345 31.5995 11.1479C31.9018 11.236 32.6196 11.9539 32.6196 12.168C32.6196 12.2436 32.7078 12.3821 32.8086 12.4703C32.9471 12.5962 33.1612 12.5458 33.8413 12.2436C34.3073 12.0295 35.063 11.7146 35.5164 11.5509C36.9899 10.9841 37.9975 10.4678 38.0856 10.2662C38.1234 10.1529 38.073 9.901 37.9723 9.69949C37.7078 9.19571 37.733 8.86826 38.0605 8.56599C38.3879 8.26372 38.9421 8.23854 39.1814 8.51561C39.3955 8.7801 39.6725 9.56095 39.6725 9.92619C39.6725 10.0899 39.7355 10.3292 39.8111 10.4678C40 10.833 39.8237 11.4627 39.5088 11.5887C38.5894 11.9665 37.0781 12.6466 36.9899 12.7222C36.927 12.7725 37.1411 13.5786 37.4685 14.498C38.5264 17.5458 38.4761 17.3569 38.2494 17.6088C38.136 17.7348 37.4307 18.1378 36.6877 18.5156C35.5416 19.095 34.7607 19.5232 33.5013 20.2788C32.3048 20.9841 31.3728 21.6264 31.3602 21.7146C31.3602 21.9035 32.0151 22.5458 32.2166 22.5458C32.3048 22.5458 32.7204 22.294 33.1234 21.9791C33.5264 21.6642 33.9169 21.4123 33.9798 21.4123C34.0554 21.4123 34.131 21.3746 34.1562 21.3116C34.1814 21.2612 34.4458 21.0849 34.7607 20.9212C36.5743 19.9766 37.3929 19.561 37.8463 19.3846C39.4584 18.7423 39.7229 18.6416 39.937 18.6416C40.0504 18.6416 40.4156 18.5282 40.7431 18.3897C41.0705 18.2511 41.4987 18.1378 41.6877 18.1378C41.8892 18.1378 42.0907 18.0748 42.1285 18.0118C42.1662 17.9363 42.3678 17.8859 42.5567 17.8859C42.7456 17.8859 42.9471 17.8355 43.0227 17.7725C43.136 17.6592 43.4383 17.6088 45.1385 17.3947C45.6801 17.3317 46.1839 17.2184 46.2469 17.1554C46.3728 17.0295 46.3476 16.702 46.1083 14.8632C45.7053 11.9287 45.5038 10.2159 45.3904 8.94383C45.3401 8.42745 45.2519 7.93627 45.1889 7.84811C45.0378 7.65919 45.2393 7.26876 45.6171 7.00428C45.932 6.77758 45.995 6.76498 46.272 6.87833Z" fill="white"/>
<path d="M53.9673 41.1226C53.9296 41.2234 53.8792 41.3997 53.8414 41.5257C53.7658 41.7272 54.2192 42.3191 54.4459 42.3191C54.5215 42.3191 54.6726 42.4073 54.786 42.508C55.0505 42.7473 55.4157 42.634 55.4157 42.3191C55.4157 42.1302 54.2822 40.9337 54.0933 40.9337C54.0555 40.9337 53.9925 41.0219 53.9673 41.1226Z" fill="white"/>
<path d="M51.8638 42.4704C51.8009 43.4402 51.826 43.6669 52.0024 43.8054C52.292 44.0321 52.5439 43.9439 52.7706 43.5283C52.9218 43.2261 52.9344 43.1631 52.7832 43.1001C52.355 42.949 52.1409 42.5712 52.1409 41.9414C52.1409 40.8457 51.9268 41.2613 51.8638 42.4704Z" fill="white"/>
<path d="M49.7608 48.692C49.2823 49.095 49.2571 49.4728 49.6979 49.9892C50.0883 50.4552 50.4913 50.493 51.0203 50.1151C51.5241 49.7625 51.5367 49.0068 51.0581 48.629C50.6047 48.2763 50.2268 48.3015 49.7608 48.692Z" fill="white"/>
</svg>

